<svg width="1139" height="398" viewBox="0 0 1139 398" fill="none" xmlns="http://www.w3.org/2000/svg">
<path d="M146.8 333.6C143.2 333.6 140.2 332.4 137.8 330C123.6 330.4 112.8 327.2 105.4 320.4C98.2 313.6 93.8 304.9 92.2 294.3C91.4 296.1 90.3 297.8 88.9 299.4C87.7 301 86.1 302.4 84.1 303.6C84.5 305.8 83.8 307.8 82 309.6C80.2 311.6 77.8 312.6 74.8 312.6C73.2 312.6 71.5 312.3 69.7 311.7C68.1 311.1 65.9 309.6 63.1 307.2C60.3 304.8 58.6 302.1 58 299.1C58.8 299.5 59.8 300.1 61 300.9C62.4 301.9 63.9 302.4 65.5 302.4H66.1C67.1 302.4 68.2 302.1 69.4 301.5C70.6 300.9 71.6 300.2 72.4 299.4C73 299 73.7 298.6 74.5 298.2C75.5 297.8 76.4 297.6 77.2 297.6C78.4 297.6 79.7 298.1 81.1 299.1C81.9 299.5 82.7 300.3 83.5 301.5C87.1 298.9 89.8 294.9 91.6 289.5C91.4 286.9 91.3 284.2 91.3 281.4C91.5 278.8 91.8 276.1 92.2 273.3C73.8 271.9 60.5 266.9 52.3 258.3C44.1 249.7 40 239.7 40 228.3C40 214.5 43.4 202.6 50.2 192.6C57 182.4 65.8 174 76.6 167.4C87.6 160.6 99.4 155.4 112 151.8C124.8 148 137.1 145.5 148.9 144.3C148.3 142.7 147.7 141.1 147.1 139.5C146.7 137.7 146.4 136 146.2 134.4C135.8 134.4 125.9 133.7 116.5 132.3C107.1 130.9 99.2 128.7 92.8 125.7C91.6 125.3 90.3 125 88.9 124.8C87.7 124.6 86.4 124.5 85 124.5C81.2 124.5 78 125.6 75.4 127.8C78.4 129.6 79.9 132.5 79.9 136.5C79.9 137.7 79.6 139.1 79 140.7C78.2 142.9 77.1 144.6 75.7 145.8C74.5 147 73.4 148.1 72.4 149.1C71.6 149.9 70.8 151 70 152.4C69.2 153.8 68.8 155.2 68.8 156.6C68.8 158.2 69.5 159.6 70.9 160.8C70.5 161.2 69.9 161.4 69.1 161.4C66.1 161.4 63.7 159.4 61.9 155.4C60.3 151.4 59.5 147.3 59.5 143.1C59.5 137.7 61.1 133.5 64.3 130.5C67.7 127.5 70.8 126.4 73.6 127.2C76 124.4 78.9 122.7 82.3 122.1C82.9 121.9 83.5 121.8 84.1 121.8C84.7 121.8 85.3 121.8 85.9 121.8C77.1 116 70.7 110 66.7 103.8C62.7 97.4 60.7 91.4 60.7 85.8C60.7 78.4 63.5 72.3 69.1 67.5C74.7 62.5 81.8 60 90.4 60C93.6 60 97 60.4 100.6 61.2C104.2 62 107.9 63.3 111.7 65.1C113.3 65.9 114.8 66.8 116.2 67.8C117.6 68.6 118.9 69.5 120.1 70.5C122.5 70.9 125.5 70.5 129.1 69.3C132.7 68.1 134.5 66.3 134.5 63.9V63.3C134.5 61.9 134.9 61.1 135.7 60.9C136.7 60.5 137.5 60.7 138.1 61.5C139.5 62.9 140.2 64.6 140.2 66.6C140.2 69.6 138.3 72.1 134.5 74.1C133.3 74.7 131.8 75 130 75C127.8 75 125.9 74.7 124.3 74.1C127.7 77.5 130.7 81.6 133.3 86.4C136.9 86.4 139.3 87.8 140.5 90.6C141.9 93.4 142.6 96.8 142.6 100.8C142.6 104.4 141.4 108.5 139 113.1C136.6 117.5 133.9 120 130.9 120.6C130.7 120.6 130.4 120.7 130 120.9C129.8 120.9 129.6 120.9 129.4 120.9C128.2 120.9 127.4 120.5 127 119.7C129.2 118.9 130.3 117.2 130.3 114.6C130.3 112.6 129.7 110.6 128.5 108.6C127.7 107.2 126.8 105.7 125.8 104.1C125 102.3 124.6 100 124.6 97.2C124.6 94.4 125.4 92.1 127 90.3C128.6 88.5 130.1 87.4 131.5 87C129.3 83 126.1 79.3 121.9 75.9C117.9 72.3 113.8 69.5 109.6 67.5C107 66.3 104.4 65.5 101.8 65.1C99.4 64.5 97.1 64.2 94.9 64.2C87.9 64.2 82.1 66.4 77.5 70.8C72.9 75.2 70.6 80.6 70.6 87C70.6 92 72.2 97.2 75.4 102.6C78.8 108 84.2 113.1 91.6 117.9C98.6 122.3 106.8 125.7 116.2 128.1C125.6 130.3 135.5 131.5 145.9 131.7C145.5 127.1 145.9 123 147.1 119.4C149.9 108.6 154.9 99.9 162.1 93.3C169.3 86.5 177.4 81.5 186.4 78.3C195.4 75.1 204 73.5 212.2 73.5C221 73.5 228.3 75.1 234.1 78.3C239.9 81.5 242.8 86 242.8 91.8C242.8 96.2 241.2 100.7 238 105.3C235 109.9 230.5 113.9 224.5 117.3C215.9 122.3 205.4 126.2 193 129C180.6 131.8 168 133.5 155.2 134.1C155.2 137.1 155.7 140.3 156.7 143.7H157C159.4 143.7 162.6 143.9 166.6 144.3C170.8 144.7 174.8 145.5 178.6 146.7C182.4 147.7 185.1 149.3 186.7 151.5C187.5 152.7 187.9 153.7 187.9 154.5C187.9 156.3 186.8 158 184.6 159.6C182.6 161 179.6 161.7 175.6 161.7C172.8 161.7 170.1 161.3 167.5 160.5C164.1 159.5 161.1 158 158.5 156C155.9 154 153.6 151.7 151.6 149.1C141 149.9 130.3 152.3 119.5 156.3C108.7 160.3 98.8 165.8 89.8 172.8C81 179.6 73.8 187.8 68.2 197.4C62.8 207 60.1 217.7 60.1 229.5C60.1 238.7 62.7 247 67.9 254.4C73.3 261.6 81.6 266.3 92.8 268.5C93.8 263.1 95.2 257.6 97 252C98.8 246.4 101 240.9 103.6 235.5C103.4 235.7 103.1 235.9 102.7 236.1C102.5 236.3 102.3 236.6 102.1 237C99.5 239 95.9 240 91.3 240C87.9 240 85.5 239.1 84.1 237.3C82.7 235.3 82 233.3 82 231.3C82 228.7 82.6 226.7 83.8 225.3C84.4 224.7 84.9 224.4 85.3 224.4C85.9 224.4 86.2 225.5 86.2 227.7C86.2 229.7 87.8 231.4 91 232.8C94.2 234 97.2 234.6 100 234.6C101.4 234.6 102.4 234.5 103 234.3C103.4 234.1 103.7 234 103.9 234C104.1 234 104.3 233.9 104.5 233.7C110.9 220.9 119.1 209.3 129.1 198.9C139.1 188.5 150.2 181.1 162.4 176.7C168.8 174.3 175 173.1 181 173.1C191 173.1 199.5 175.9 206.5 181.5C213.5 186.9 217 194.3 217 203.7C217 208.1 215.9 213 213.7 218.4C211.5 223.8 208.1 229.4 203.5 235.2C196.1 244.4 186.7 251.9 175.3 257.7C164.1 263.3 152.2 267.4 139.6 270C127 272.6 114.9 273.9 103.3 273.9H99.1C98.5 278.1 98.2 282.3 98.2 286.5C98.2 298.1 101.2 307.9 107.2 315.9C113.2 324.1 123 328.1 136.6 327.9C135.8 326.5 135.4 324.8 135.4 322.8C135.4 319.4 136.6 316.1 139 312.9C141.6 309.9 145.3 308.2 150.1 307.8C158.1 307.2 163.8 305 167.2 301.2C170.6 297.6 172.7 294.8 173.5 292.8C174.1 293.8 174.5 294.9 174.7 296.1C174.9 297.5 175 298.8 175 300C175 303.8 174.2 307.5 172.6 311.1C171.2 314.9 169.9 317.7 168.7 319.5C165.5 324.5 161.9 328.1 157.9 330.3C153.9 332.5 150.2 333.6 146.8 333.6ZM155.2 131.4C168.8 130.8 181.8 128.5 194.2 124.5C206.8 120.3 217.1 114.7 225.1 107.7C232.3 101.3 235.9 95.4 235.9 90C235.7 86 233.6 83 229.6 81C225.8 79 221 78 215.2 78C208.4 78 201 79.5 193 82.5C185 85.5 177.7 90.2 171.1 96.6C164.5 102.8 159.8 110.8 157 120.6C156.2 124.2 155.6 127.8 155.2 131.4ZM176.8 157.5C179.6 157.5 181 156.8 181 155.4C181 154 179.3 152.6 175.9 151.2C172.5 149.6 167 148.8 159.4 148.8C162.2 152.6 166.4 155.3 172 156.9C173 157.1 173.8 157.3 174.4 157.5C175.2 157.5 176 157.5 176.8 157.5ZM99.7 269.4C103.3 269.8 107.1 269.8 111.1 269.4C124.9 268.4 136.8 266 146.8 262.2C157 258.6 165.6 254 172.6 248.4C179.8 242.8 185.9 236.9 190.9 230.7C195.9 224.5 199.5 218.7 201.7 213.3C204.1 207.9 205.3 203 205.3 198.6C205.3 192 203.1 186.8 198.7 183C194.3 179.2 188.5 177.3 181.3 177.3C178.7 177.3 175.9 177.6 172.9 178.2C169.9 178.6 166.8 179.4 163.6 180.6C153.2 184.4 143.5 191.1 134.5 200.7C125.7 210.1 118.2 220.9 112 233.1C106 245.3 101.9 257.4 99.7 269.4Z" fill="white"/>
<path d="M238.499 263.7C226.899 263.7 221.099 257.8 221.099 246C221.099 241 221.899 235.8 223.499 230.4C225.299 225 227.199 220.4 229.199 216.6C228.999 216.8 228.699 216.9 228.299 216.9C227.499 216.9 226.899 216.5 226.499 215.7C226.099 214.9 225.999 214.2 226.199 213.6C227.999 211 230.399 207.6 233.399 203.4C236.399 199.2 239.599 194.8 242.999 190.2C246.599 185.4 249.899 180.9 252.899 176.7C256.099 172.3 258.699 168.8 260.699 166.2C262.299 165.8 264.399 165.2 266.999 164.4C269.799 163.6 272.499 163.2 275.099 163.2C277.899 163.2 279.999 164 281.399 165.6C278.799 169.8 274.899 175.6 269.699 183C264.499 190.2 259.099 198.1 253.499 206.7C248.099 215.1 243.399 223.4 239.399 231.6C235.599 239.6 233.699 246.5 233.699 252.3C233.699 255.3 234.199 257.3 235.199 258.3C236.399 259.3 237.699 259.8 239.099 259.8C240.299 259.8 241.799 259.5 243.599 258.9C245.599 258.1 247.899 257 250.499 255.6C255.099 253 259.499 249.6 263.699 245.4C268.099 241.2 271.999 236.9 275.399 232.5C278.999 228.1 281.899 224.5 284.099 221.7C283.499 219.3 283.199 216.4 283.199 213C283.199 209 283.499 204.9 284.099 200.7C284.899 196.5 285.699 192.8 286.499 189.6C287.699 185.6 289.199 181.7 290.999 177.9C292.999 174.1 295.099 171 297.299 168.6C299.699 166 301.799 164.7 303.599 164.7C305.199 164.7 306.699 165.5 308.099 167.1C309.699 168.5 310.499 170.6 310.499 173.4C310.499 175.2 310.199 177.4 309.599 180C309.199 182.6 308.399 185.6 307.199 189C305.799 193.2 303.699 197.8 300.899 202.8C298.099 207.6 295.499 211.8 293.099 215.4C290.699 219 289.199 221.2 288.599 222C288.799 223 289.699 225.1 291.299 228.3C293.099 231.3 295.699 232.8 299.099 232.8C303.699 232.8 307.999 230.9 311.999 227.1C316.199 223.1 319.799 218.6 322.799 213.6C323.599 212.8 324.599 212.4 325.799 212.4C326.199 212.4 326.599 212.7 326.999 213.3C327.399 213.7 327.399 214.4 326.999 215.4C321.599 224 316.499 229.8 311.699 232.8C306.899 235.6 302.599 237 298.799 237C294.999 237 291.899 235.9 289.499 233.7C287.299 231.5 285.899 229.4 285.299 227.4C283.699 229.8 281.399 233 278.399 237C275.399 241 271.799 245.1 267.599 249.3C263.599 253.3 259.099 256.7 254.099 259.5C249.099 262.3 243.899 263.7 238.499 263.7Z" fill="white"/>
<path d="M343.579 264C338.379 264 333.479 262.8 328.879 260.4C324.279 257.8 320.879 253.7 318.679 248.1C317.279 244.5 316.579 240.4 316.579 235.8C316.579 230.2 317.679 224.7 319.879 219.3C322.679 212.7 326.779 206.2 332.179 199.8C337.579 193.4 343.579 187.6 350.179 182.4C356.779 177.2 363.379 173.1 369.979 170.1C376.579 166.9 382.479 165.3 387.679 165.3C392.079 165.3 395.579 166.5 398.179 168.9C399.979 170.7 400.879 173.3 400.879 176.7C400.879 181.1 399.179 186.2 395.779 192C392.579 197.6 387.979 202.5 381.979 206.7C378.179 209.3 373.679 211.5 368.479 213.3C363.479 214.9 358.179 215.7 352.579 215.7C350.779 215.7 348.879 215.6 346.879 215.4C345.079 215.2 343.279 214.9 341.479 214.5C340.079 216.1 338.379 218.7 336.379 222.3C334.579 225.7 332.979 229.5 331.579 233.7C330.379 237.9 329.779 241.9 329.779 245.7C329.979 250.9 331.379 254.6 333.979 256.8C336.779 258.8 340.079 259.8 343.879 259.8C351.479 259.8 358.779 257.4 365.779 252.6C372.979 247.6 379.479 241.5 385.279 234.3C391.079 227.1 395.979 220.2 399.979 213.6C400.579 212.8 401.079 212.4 401.479 212.4C401.879 212.2 402.179 212.1 402.379 212.1C402.979 212.1 403.479 212.4 403.879 213C404.479 213.6 404.579 214.4 404.179 215.4C401.579 219.6 398.179 224.6 393.979 230.4C389.979 236.2 385.179 241.8 379.579 247.2C374.179 252.4 368.079 256.7 361.279 260.1C358.679 261.5 355.779 262.5 352.579 263.1C349.579 263.7 346.579 264 343.579 264ZM349.879 211.5C359.279 211.5 367.779 209.1 375.379 204.3C383.179 199.3 388.779 193.3 392.179 186.3C393.179 184.7 393.779 183.2 393.979 181.8C394.379 180.4 394.579 179.3 394.579 178.5C394.579 175.1 392.679 173.4 388.879 173.4C386.479 173.4 383.779 174 380.779 175.2C377.979 176.4 375.479 177.8 373.279 179.4C369.479 182.2 365.479 185.7 361.279 189.9C357.279 193.9 353.679 197.9 350.479 201.9C347.279 205.7 344.879 208.7 343.279 210.9C344.279 211.1 345.379 211.3 346.579 211.5C347.779 211.5 348.879 211.5 349.879 211.5Z" fill="white"/>
<path d="M427.83 264.3C423.83 264.3 420.23 263.1 417.03 260.7C414.03 258.3 412.53 254.9 412.53 250.5C412.53 245.5 413.83 240.1 416.43 234.3C419.23 228.5 422.23 223.3 425.43 218.7C428.63 213.9 430.73 210.8 431.73 209.4C435.33 204.6 438.63 199.7 441.63 194.7C444.83 189.5 446.43 185.3 446.43 182.1C446.43 179.1 445.13 177.2 442.53 176.4C440.33 175.6 438.03 174.8 435.63 174C433.23 173 431.43 172.4 430.23 172.2C429.63 173.2 428.23 175.6 426.03 179.4C423.83 183 421.23 187.2 418.23 192C415.43 196.6 412.73 201.1 410.13 205.5C407.53 209.9 405.53 213.2 404.13 215.4C402.93 216.8 401.93 217.5 401.13 217.5C400.33 217.5 399.73 217.1 399.33 216.3C399.13 215.5 399.33 214.6 399.93 213.6C405.93 204.2 411.23 195.4 415.83 187.2C420.43 179 423.43 173.8 424.83 171.6C422.83 170.2 421.23 167.8 420.03 164.4C418.83 161 418.23 157.5 418.23 153.9C418.23 149.9 419.03 146.3 420.63 143.1C422.23 139.9 424.93 138.3 428.73 138.3C431.33 138.3 433.13 139.6 434.13 142.2C435.13 144.6 435.63 147.4 435.63 150.6C435.63 153.4 435.33 156.1 434.73 158.7C434.13 161.3 433.63 163.1 433.23 164.1L431.13 168.9C433.53 169.1 437.13 169.5 441.93 170.1C446.73 170.7 451.73 171.4 456.93 172.2C459.93 172.6 462.33 173.7 464.13 175.5C466.13 177.3 467.13 179.7 467.13 182.7C467.13 185.7 466.13 189.3 464.13 193.5C462.13 197.7 458.73 202.5 453.93 207.9C451.53 210.7 448.63 214.4 445.23 219C441.83 223.6 438.63 228.1 435.63 232.5C432.63 236.7 430.43 240 429.03 242.4C426.43 246.6 425.13 250.4 425.13 253.8C425.13 257.6 427.23 259.5 431.43 259.5C436.03 259.5 440.93 257.8 446.13 254.4C451.33 250.8 456.43 246.4 461.43 241.2C466.43 236 470.83 230.9 474.63 225.9C478.63 220.7 481.53 216.6 483.33 213.6C484.13 212.2 485.23 211.5 486.63 211.5C487.63 211.5 488.13 212 488.13 213C488.13 214 487.93 214.8 487.53 215.4C485.53 218.4 482.23 222.9 477.63 228.9C473.23 234.9 467.93 241 461.73 247.2C455.53 253.2 448.63 257.9 441.03 261.3C438.63 262.3 436.23 263 433.83 263.4C431.43 264 429.43 264.3 427.83 264.3Z" fill="white"/>
<path d="M433.326 378C428.126 378 423.826 376.5 420.426 373.5C417.026 370.5 415.326 366.5 415.326 361.5C415.326 359.1 415.826 356.4 416.826 353.4C417.826 350.6 419.426 347.7 421.626 344.7C425.626 339.1 431.526 332.8 439.326 325.8C446.926 319 454.926 312.5 463.326 306.3C472.526 299.3 481.326 293.1 489.726 287.7C498.326 282.5 505.526 278.3 511.326 275.1C517.326 272.1 520.826 270.4 521.826 270C522.226 269.6 522.926 267.9 523.926 264.9C525.126 262.1 526.426 258.9 527.826 255.3C529.226 251.7 530.426 248.4 531.426 245.4C532.626 242.2 533.426 240.1 533.826 239.1L536.526 232.2C532.926 236.8 528.726 241.5 523.926 246.3C519.326 250.9 514.326 254.8 508.926 258C503.726 261.2 498.326 262.8 492.726 262.8C485.926 262.8 481.226 260.7 478.626 256.5C476.226 252.1 475.026 247.3 475.026 242.1C475.026 239.5 475.226 237 475.626 234.6C476.226 232 476.826 229.7 477.426 227.7C479.226 221.9 482.226 215.5 486.426 208.5C490.826 201.5 496.126 194.8 502.326 188.4C508.526 181.8 515.326 176.4 522.726 172.2C530.326 168 538.126 165.9 546.126 165.9C552.126 165.9 556.126 167.4 558.126 170.4C560.326 173.4 561.426 176.8 561.426 180.6C561.426 181.4 561.326 182.2 561.126 183C561.126 183.8 561.026 184.7 560.826 185.7C563.026 182.3 566.126 178 570.126 172.8C574.326 167.4 578.326 163.1 582.126 159.9C584.926 157.7 587.726 156.6 590.526 156.6C592.726 156.6 594.526 157.2 595.926 158.4C597.526 159.4 598.326 160.6 598.326 162C598.326 163.4 597.326 164.7 595.326 165.9C589.126 169.1 583.326 172.7 577.926 176.7C572.526 180.5 567.726 185.2 563.526 190.8C560.326 195.2 557.526 200.6 555.126 207C552.726 213.4 550.626 220.1 548.826 227.1C547.026 233.9 545.326 240.5 543.726 246.9C542.126 253.1 540.526 258.4 538.926 262.8C542.126 260.8 546.526 257.4 552.126 252.6C557.726 247.8 563.526 242 569.526 235.2C575.726 228.4 581.026 221.2 585.426 213.6C586.226 212.6 586.826 212 587.226 211.8C587.626 211.6 588.026 211.5 588.426 211.5C589.026 211.5 589.526 211.8 589.926 212.4C590.526 212.8 590.726 213.3 590.526 213.9C584.926 223.7 578.526 232.6 571.326 240.6C564.126 248.6 557.426 255.1 551.226 260.1C545.026 265.1 540.526 268.2 537.726 269.4C533.526 281.4 527.926 294.1 520.926 307.5C514.126 321.1 505.326 333.9 494.526 345.9C490.526 350.3 485.226 355 478.626 360C472.226 365 465.126 369.2 457.326 372.6C449.526 376.2 441.526 378 433.326 378ZM497.226 257.4C501.826 257.4 506.626 255.4 511.626 251.4C516.826 247.4 521.926 242.3 526.926 236.1C532.126 229.9 536.826 223.4 541.026 216.6C545.226 209.8 548.626 203.5 551.226 197.7C554.026 191.9 555.626 187.5 556.026 184.5C556.226 183.5 556.326 182.5 556.326 181.5C556.526 180.3 556.626 179.3 556.626 178.5C556.626 172.1 554.326 168.9 549.726 168.9C546.526 168.9 542.826 170.3 538.626 173.1C534.426 175.9 530.126 179.5 525.726 183.9C521.526 188.3 517.526 193.1 513.726 198.3C510.126 203.3 507.226 208.2 505.026 213C504.426 214.2 502.926 217.1 500.526 221.7C498.326 226.3 496.126 231.3 493.926 236.7C491.926 242.1 490.926 246.8 490.926 250.8C490.926 255.2 493.026 257.4 497.226 257.4ZM432.426 373.2C437.026 373.2 442.526 370.9 448.926 366.3C455.126 361.7 461.626 355.7 468.426 348.3C475.426 340.9 482.226 332.9 488.826 324.3C495.426 315.7 501.426 307.3 506.826 299.1C512.226 290.9 516.526 283.7 519.726 277.5C516.926 278.9 512.626 281.3 506.826 284.7C501.026 288.3 494.426 292.5 487.026 297.3C479.626 302.3 472.126 307.7 464.526 313.5C457.126 319.3 450.226 325.1 443.826 330.9C437.226 336.9 432.026 342.6 428.226 348C424.226 353.4 422.226 358.3 422.226 362.7C422.226 364.7 422.826 366.6 424.026 368.4C426.026 371.6 428.826 373.2 432.426 373.2Z" fill="white"/>
<path d="M595.279 263.1C589.679 263.1 585.379 261 582.379 256.8C579.379 252.4 577.879 246.8 577.879 240C577.879 232.6 579.879 224 583.879 214.2C586.079 208.8 589.379 203.3 593.779 197.7C598.179 191.9 603.279 186.6 609.079 181.8C614.879 176.8 621.079 172.8 627.679 169.8C634.479 166.6 641.379 165 648.379 165C653.779 165 657.479 166.4 659.479 169.2C661.479 172 662.479 175.4 662.479 179.4C662.479 183.2 661.879 187.1 660.679 191.1L677.479 165.6C678.879 164.6 681.979 164.1 686.779 164.1C690.379 164.1 693.779 164.5 696.979 165.3C700.379 166.1 701.379 167.3 699.979 168.9C698.379 170.9 695.579 174 691.579 178.2C687.779 182.2 683.579 187 678.979 192.6C674.579 198.2 670.379 204.1 666.379 210.3C664.379 213.7 661.379 218.7 657.379 225.3C653.579 231.9 650.579 238.2 648.379 244.2C647.179 247.8 646.579 250.7 646.579 252.9C646.579 257.1 648.379 259.2 651.979 259.2C653.979 259.2 656.679 258.5 660.079 257.1C663.479 255.5 666.779 253.4 669.979 250.8C676.379 245.6 681.979 239.4 686.779 232.2C691.579 224.8 695.879 218.3 699.679 212.7C699.879 212.5 700.079 212.3 700.279 212.1C700.679 211.9 701.279 211.8 702.079 211.8C702.879 211.8 703.479 212.2 703.879 213C704.279 213.6 704.079 214.4 703.279 215.4C697.679 223.8 692.179 231.7 686.779 239.1C681.379 246.3 675.879 252.1 670.279 256.5C664.679 260.9 658.579 263.1 651.979 263.1C646.779 263.1 642.579 261.6 639.379 258.6C636.379 255.4 634.879 251.1 634.879 245.7C634.879 243.3 635.079 240.8 635.479 238.2C636.079 235.6 636.779 233.2 637.579 231C634.379 235.2 630.379 239.8 625.579 244.8C620.979 249.8 616.079 254.1 610.879 257.7C605.679 261.3 600.479 263.1 595.279 263.1ZM597.979 257.4C601.979 257.4 606.179 255.8 610.579 252.6C615.179 249.4 619.779 245.3 624.379 240.3C628.979 235.1 633.179 229.6 636.979 223.8C640.179 219 643.279 213.9 646.279 208.5C649.479 203.1 652.079 197.8 654.079 192.6C656.279 187.4 657.379 182.7 657.379 178.5C657.379 172.1 655.079 168.9 650.479 168.9C647.279 168.9 643.579 170.3 639.379 173.1C635.179 175.9 630.879 179.5 626.479 183.9C622.279 188.3 618.279 193.1 614.479 198.3C610.879 203.3 607.979 208.2 605.779 213C605.179 214.2 603.679 217.1 601.279 221.7C599.079 226.3 596.879 231.3 594.679 236.7C592.679 242.1 591.679 246.8 591.679 250.8C591.679 255.2 593.779 257.4 597.979 257.4Z" fill="white"/>
<path d="M726.951 264.3C722.951 264.3 719.351 263.1 716.151 260.7C713.151 258.3 711.651 254.9 711.651 250.5C711.651 245.5 712.951 240.1 715.551 234.3C718.351 228.5 721.351 223.3 724.551 218.7C727.751 213.9 729.851 210.8 730.851 209.4C734.451 204.6 737.751 199.7 740.751 194.7C743.951 189.5 745.551 185.3 745.551 182.1C745.551 179.1 744.251 177.2 741.651 176.4C739.451 175.6 737.151 174.8 734.751 174C732.351 173 730.551 172.4 729.351 172.2C728.751 173.2 727.351 175.6 725.151 179.4C722.951 183 720.351 187.2 717.351 192C714.551 196.6 711.851 201.1 709.251 205.5C706.651 209.9 704.651 213.2 703.251 215.4C702.051 216.8 701.051 217.5 700.251 217.5C699.451 217.5 698.851 217.1 698.451 216.3C698.251 215.5 698.451 214.6 699.051 213.6C705.051 204.2 710.351 195.4 714.951 187.2C719.551 179 722.551 173.8 723.951 171.6C721.951 170.2 720.351 167.8 719.151 164.4C717.951 161 717.351 157.5 717.351 153.9C717.351 149.9 718.151 146.3 719.751 143.1C721.351 139.9 724.051 138.3 727.851 138.3C730.451 138.3 732.251 139.6 733.251 142.2C734.251 144.6 734.751 147.4 734.751 150.6C734.751 153.4 734.451 156.1 733.851 158.7C733.251 161.3 732.751 163.1 732.351 164.1L730.251 168.9C732.651 169.1 736.251 169.5 741.051 170.1C745.851 170.7 750.851 171.4 756.051 172.2C759.051 172.6 761.451 173.7 763.251 175.5C765.251 177.3 766.251 179.7 766.251 182.7C766.251 185.7 765.251 189.3 763.251 193.5C761.251 197.7 757.851 202.5 753.051 207.9C750.651 210.7 747.751 214.4 744.351 219C740.951 223.6 737.751 228.1 734.751 232.5C731.751 236.7 729.551 240 728.151 242.4C725.551 246.6 724.251 250.4 724.251 253.8C724.251 257.6 726.351 259.5 730.551 259.5C735.151 259.5 740.051 257.8 745.251 254.4C750.451 250.8 755.551 246.4 760.551 241.2C765.551 236 769.951 230.9 773.751 225.9C777.751 220.7 780.651 216.6 782.451 213.6C783.251 212.2 784.351 211.5 785.751 211.5C786.751 211.5 787.251 212 787.251 213C787.251 214 787.051 214.8 786.651 215.4C784.651 218.4 781.351 222.9 776.751 228.9C772.351 234.9 767.051 241 760.851 247.2C754.651 253.2 747.751 257.9 740.151 261.3C737.751 262.3 735.351 263 732.951 263.4C730.551 264 728.551 264.3 726.951 264.3Z" fill="white"/>
<path d="M844.947 264.6C841.147 264.6 837.847 263.4 835.047 261C832.247 258.6 830.847 254.6 830.847 249C830.847 246.2 831.147 243.3 831.747 240.3C832.547 237.1 833.347 234.2 834.147 231.6C830.947 235.8 827.047 240.4 822.447 245.4C817.847 250.4 812.947 254.7 807.747 258.3C802.547 261.9 797.247 263.7 791.847 263.7C786.447 263.7 782.247 261.5 779.247 257.1C776.447 252.7 775.047 247.1 775.047 240.3C775.047 232.3 776.847 224 780.447 215.4C782.047 211.8 784.947 207.2 789.147 201.6C793.347 196 798.447 190.5 804.447 185.1C810.447 179.7 816.947 175.2 823.947 171.6C830.947 167.8 837.947 165.9 844.947 165.9C850.147 165.9 853.747 167.3 855.747 170.1C857.947 172.7 859.047 175.9 859.047 179.7C859.047 181.5 858.847 183.4 858.447 185.4C858.047 187.2 857.547 189.1 856.947 191.1L896.247 126.6C896.647 125.6 898.847 124.4 902.847 123C906.847 121.4 910.347 120.6 913.347 120.6C916.547 120.6 918.147 121.6 918.147 123.6C918.147 125.2 917.347 127.2 915.747 129.6L879.147 187.8C878.147 189.4 876.247 192.3 873.447 196.5C870.647 200.5 867.547 205.2 864.147 210.6C860.947 216 857.747 221.5 854.547 227.1C854.347 227.7 853.447 229.5 851.847 232.5C850.247 235.5 848.647 238.8 847.047 242.4C845.047 247 844.047 250.8 844.047 253.8C844.047 257.8 845.747 259.8 849.147 259.8C852.547 259.8 856.447 258 860.847 254.4C864.647 251.4 868.447 247.8 872.247 243.6C876.047 239.4 879.547 235.1 882.747 230.7C886.147 226.3 888.847 222.5 890.847 219.3C893.047 215.9 894.447 213.7 895.047 212.7C895.647 211.9 896.347 211.5 897.147 211.5C898.947 211.5 899.647 212.4 899.247 214.2C897.647 217 895.047 221.2 891.447 226.8C888.047 232.4 883.847 238.1 878.847 243.9C874.047 249.7 868.847 254.5 863.247 258.3C860.647 260.1 857.647 261.6 854.247 262.8C851.047 264 847.947 264.6 844.947 264.6ZM794.247 258.6C798.847 258.6 803.647 256.6 808.647 252.6C813.847 248.6 818.947 243.5 823.947 237.3C829.147 231.1 833.847 224.6 838.047 217.8C842.247 211 845.647 204.7 848.247 198.9C851.047 193.1 852.747 188.7 853.347 185.7C853.547 184.7 853.647 183.8 853.647 183C853.847 182 853.947 181.1 853.947 180.3C853.947 173.5 851.547 170.1 846.747 170.1C843.547 170.1 839.847 171.5 835.647 174.3C831.447 177.1 827.147 180.7 822.747 185.1C818.547 189.5 814.547 194.3 810.747 199.5C807.147 204.5 804.247 209.4 802.047 214.2C801.447 215.4 799.947 218.3 797.547 222.9C795.347 227.5 793.147 232.5 790.947 237.9C788.947 243.3 787.947 248 787.947 252C787.947 256.4 790.047 258.6 794.247 258.6Z" fill="white"/>
<path d="M915.161 264C909.961 264 905.061 262.8 900.461 260.4C895.861 257.8 892.461 253.7 890.261 248.1C888.861 244.5 888.161 240.4 888.161 235.8C888.161 230.2 889.261 224.7 891.461 219.3C894.261 212.7 898.361 206.2 903.761 199.8C909.161 193.4 915.161 187.6 921.761 182.4C928.361 177.2 934.961 173.1 941.561 170.1C948.161 166.9 954.061 165.3 959.261 165.3C963.661 165.3 967.161 166.5 969.761 168.9C971.561 170.7 972.461 173.3 972.461 176.7C972.461 181.1 970.761 186.2 967.361 192C964.161 197.6 959.561 202.5 953.561 206.7C949.761 209.3 945.261 211.5 940.061 213.3C935.061 214.9 929.761 215.7 924.161 215.7C922.361 215.7 920.461 215.6 918.461 215.4C916.661 215.2 914.861 214.9 913.061 214.5C911.661 216.1 909.961 218.7 907.961 222.3C906.161 225.7 904.561 229.5 903.161 233.7C901.961 237.9 901.361 241.9 901.361 245.7C901.561 250.9 902.961 254.6 905.561 256.8C908.361 258.8 911.661 259.8 915.461 259.8C923.061 259.8 930.361 257.4 937.361 252.6C944.561 247.6 951.061 241.5 956.861 234.3C962.661 227.1 967.561 220.2 971.561 213.6C972.161 212.8 972.661 212.4 973.061 212.4C973.461 212.2 973.761 212.1 973.961 212.1C974.561 212.1 975.061 212.4 975.461 213C976.061 213.6 976.161 214.4 975.761 215.4C973.161 219.6 969.761 224.6 965.561 230.4C961.561 236.2 956.761 241.8 951.161 247.2C945.761 252.4 939.661 256.7 932.861 260.1C930.261 261.5 927.361 262.5 924.161 263.1C921.161 263.7 918.161 264 915.161 264ZM921.461 211.5C930.861 211.5 939.361 209.1 946.961 204.3C954.761 199.3 960.361 193.3 963.761 186.3C964.761 184.7 965.361 183.2 965.561 181.8C965.961 180.4 966.161 179.3 966.161 178.5C966.161 175.1 964.261 173.4 960.461 173.4C958.061 173.4 955.361 174 952.361 175.2C949.561 176.4 947.061 177.8 944.861 179.4C941.061 182.2 937.061 185.7 932.861 189.9C928.861 193.9 925.261 197.9 922.061 201.9C918.861 205.7 916.461 208.7 914.861 210.9C915.861 211.1 916.961 211.3 918.161 211.5C919.361 211.5 920.461 211.5 921.461 211.5Z" fill="white"/>
<path d="M1043.81 265.5C1039.01 265.5 1034.91 264 1031.51 261C1028.11 257.8 1026.41 253.3 1026.41 247.5C1026.41 240.5 1028.41 233.3 1032.41 225.9C1036.41 218.3 1041.11 210.8 1046.51 203.4C1051.91 196 1056.61 189.2 1060.61 183C1062.81 179.2 1063.91 176.1 1063.91 173.7C1063.91 170.9 1062.61 169.5 1060.01 169.5C1058.01 169.5 1055.01 170.8 1051.01 173.4C1047.01 175.8 1041.91 180 1035.71 186C1029.71 192 1023.91 198.7 1018.31 206.1C1012.91 213.3 1007.91 220.5 1003.31 227.7C998.912 234.9 995.012 241.5 991.612 247.5C988.412 253.5 986.012 258.1 984.412 261.3C983.012 261.9 981.212 262.3 979.012 262.5C977.012 262.7 974.912 262.8 972.712 262.8C967.712 262.8 964.412 262.5 962.812 261.9C965.412 258.3 968.812 253.3 973.012 246.9C977.412 240.5 982.012 233.6 986.812 226.2C991.612 218.6 996.012 211.5 1000.01 204.9C1002.21 201.1 1004.61 197 1007.21 192.6C1009.81 188.2 1012.01 184.1 1013.81 180.3C1015.61 176.3 1016.51 173.3 1016.51 171.3C1016.51 169.3 1015.71 168.3 1014.11 168.3C1013.11 168.3 1011.81 168.8 1010.21 169.8C1008.61 170.8 1007.11 172.1 1005.71 173.7C1002.71 176.7 998.812 181.4 994.012 187.8C989.412 194 983.312 203.2 975.712 215.4C975.112 216.4 974.112 216.9 972.712 216.9C971.112 216.9 970.712 215.8 971.512 213.6C975.112 207.8 978.812 202 982.612 196.2C986.412 190.2 990.212 184.6 994.012 179.4C998.012 174.2 1001.71 170.1 1005.11 167.1C1008.71 163.9 1012.51 162.3 1016.51 162.3C1020.31 162.3 1023.21 163.6 1025.21 166.2C1027.21 168.8 1028.21 171.8 1028.21 175.2C1028.21 179.2 1027.31 183.6 1025.51 188.4C1026.31 187.6 1027.01 186.8 1027.61 186C1028.41 185.2 1029.21 184.4 1030.01 183.6C1037.01 176.2 1043.81 170.8 1050.41 167.4C1057.21 163.8 1063.11 162 1068.11 162C1071.91 162 1075.11 163 1077.71 165C1080.51 167 1081.91 169.7 1081.91 173.1C1081.91 177.1 1080.51 181.9 1077.71 187.5C1074.91 193.1 1071.71 198.4 1068.11 203.4C1064.71 208.4 1061.91 212.3 1059.71 215.1C1058.31 217.1 1055.61 220.8 1051.61 226.2C1047.61 231.4 1044.21 236.8 1041.41 242.4C1040.01 244.8 1039.01 247 1038.41 249C1038.01 250.8 1037.81 252.5 1037.81 254.1C1037.81 258.7 1039.91 261 1044.11 261C1048.71 261 1054.41 258.3 1061.21 252.9C1066.61 248.7 1072.11 243.3 1077.71 236.7C1083.51 229.9 1089.01 222.2 1094.21 213.6C1094.81 212.6 1095.41 212.1 1096.01 212.1C1096.61 211.9 1097.01 211.8 1097.21 211.8C1098.61 211.8 1099.01 213 1098.41 215.4C1092.61 224.6 1086.51 233.1 1080.11 240.9C1073.91 248.7 1067.61 254.9 1061.21 259.5C1055.41 263.5 1049.61 265.5 1043.81 265.5Z" fill="white"/>
</svg>
